<?xml version="1.0" standalone="no"?>
<!DOCTYPE svg PUBLIC "-//W3C//DTD SVG 20010904//EN"
 "http://www.w3.org/TR/2001/REC-SVG-20010904/DTD/svg10.dtd">
<svg version="1.0" xmlns="http://www.w3.org/2000/svg"
 width="700.000000pt" height="700.000000pt" viewBox="0 0 700.000000 700.000000"
 preserveAspectRatio="xMidYMid meet">
<metadata>
Created by potrace 1.11, written by Peter Selinger 2001-2013
</metadata>
<g transform="translate(0.000000,700.000000) scale(0.100000,-0.100000)"
fill="#000000" stroke="none">
<path d="M624 6975 c-124 -27 -201 -60 -300 -131 -157 -111 -279 -314 -301
-501 -9 -76 -9 -5598 0 -5684 25 -242 200 -478 431 -583 55 -25 130 -48 201
-61 17 -3 1299 -5 2850 -5 2478 -1 2830 1 2893 15 230 48 420 197 523 409 80
164 73 -114 73 3066 0 2299 -2 2845 -13 2890 -73 307 -295 526 -595 585 -103
20 -5669 20 -5762 0z m826 -1000 c19 -2 62 -6 95 -9 33 -3 78 -8 100 -11 22
-3 56 -8 75 -11 104 -14 239 -36 270 -44 19 -5 50 -12 69 -15 77 -13 385 -97
511 -138 294 -98 626 -242 850 -371 25 -14 54 -30 65 -36 11 -5 36 -20 57 -32
20 -13 58 -36 85 -52 455 -275 939 -704 1287 -1141 26 -33 53 -67 59 -75 7 -8
49 -67 95 -130 45 -63 85 -119 90 -125 21 -26 176 -282 229 -380 276 -500 491
-1136 558 -1645 3 -25 8 -56 10 -70 2 -14 7 -50 10 -80 3 -30 8 -71 10 -90 8
-61 15 -162 20 -266 7 -134 -16 -188 -96 -230 -30 -16 -65 -18 -319 -19 -157
0 -304 3 -327 7 -95 17 -138 78 -147 208 -14 184 -17 216 -21 250 -3 19 -7 55
-10 80 -4 25 -8 56 -10 70 -10 64 -25 147 -29 170 -3 14 -11 50 -17 80 -39
194 -119 454 -206 670 -49 121 -165 367 -211 445 -9 17 -32 57 -51 90 -152
269 -439 637 -678 865 -174 167 -246 228 -413 352 -210 156 -359 248 -595 368
-275 141 -557 246 -853 320 -172 43 -175 43 -312 66 -122 19 -133 21 -205 29
-33 3 -71 8 -85 10 -14 2 -77 7 -140 10 -137 7 -187 26 -228 88 l-27 41 0 321
0 321 28 43 c47 71 87 83 242 76 72 -4 146 -8 165 -10z m-106 -1600 c45 -4 90
-9 101 -11 10 -2 37 -6 60 -9 439 -63 855 -212 1247 -445 96 -57 315 -208 370
-255 13 -11 56 -47 95 -80 101 -84 304 -291 402 -410 109 -131 100 -119 174
-227 207 -300 369 -638 467 -975 38 -130 93 -379 105 -473 3 -25 8 -72 12
-105 4 -33 7 -108 8 -166 0 -100 -2 -107 -27 -141 -53 -70 -66 -72 -413 -72
-303 0 -311 0 -350 22 -69 39 -89 84 -100 216 -7 89 -17 157 -41 275 -41 204
-129 448 -230 641 -54 103 -195 321 -251 390 -195 238 -410 429 -653 581 -105
65 -335 176 -455 219 -181 65 -429 122 -590 135 -100 8 -132 14 -170 32 -35
17 -71 65 -85 112 -5 17 -9 161 -8 320 0 259 2 292 18 327 27 56 42 71 89 93
44 19 62 20 225 6z m605 -1901 c464 -117 695 -642 472 -1068 -43 -83 -40 -78
-112 -159 -192 -214 -506 -296 -783 -203 -469 158 -660 717 -385 1126 175 262
497 383 808 304z"/>
</g>
</svg>
