<?xml version="1.0" encoding="UTF-8" standalone="no"?>
<!DOCTYPE svg PUBLIC "-//W3C//DTD SVG 1.1//EN" "http://www.w3.org/Graphics/SVG/1.1/DTD/svg11.dtd">
<svg version="1.1" xmlns="http://www.w3.org/2000/svg" xmlns:xlink="http://www.w3.org/1999/xlink" preserveAspectRatio="xMidYMid meet" viewBox="0 0 599 599" width="599" height="599">
    <defs>
        <path d="M65.33 1C29.99 1 1.33 29.65 1.33 65C1.33 111.93 1.33 487.4 1.33 534.33C1.33 569.68 29.99 598.33 65.33 598.33C112.27 598.33 487.73 598.33 534.67 598.33C570.01 598.33 598.67 569.68 598.67 534.33C598.67 487.4 598.67 111.93 598.67 65C598.67 29.65 570.01 1 534.67 1C440.8 1 112.27 1 65.33 1ZM86.67 449C86.67 413.65 115.32 385 150.67 385C186.01 385 214.67 413.65 214.67 449C214.67 484.35 186.01 513 150.67 513C115.32 513 86.67 484.35 86.67 449ZM314.93 513C306.92 513 300.2 506.82 299.67 498.82C292.72 392.09 207.35 306.93 100.84 299.99C92.85 299.47 86.67 292.75 86.67 284.74C86.67 280.16 86.67 243.53 86.67 238.96C86.67 230.24 93.96 223.25 102.66 223.72C250.05 231.69 367.99 349.77 375.94 497.01C376.41 505.71 369.42 513 360.71 513C351.55 513 319.51 513 314.93 513ZM452.3 513C444.09 513 437.4 506.49 437.07 498.28C429.6 316.24 283.46 170.07 101.39 162.6C93.18 162.27 86.67 155.58 86.67 147.37C86.67 142.79 86.67 106.16 86.67 101.59C86.67 92.98 93.78 86.03 102.38 86.34C326.16 94.38 505.33 274.6 513.32 497.28C513.63 505.88 506.69 513 498.08 513C488.92 513 456.88 513 452.3 513Z" id="d2XW4waS2V"/>
    </defs>
    <g>
        <g>
            <g>
                <use xlink:href="#d2XW4waS2V" opacity="1" fill="#ff9900" fill-opacity="1"/>
                <g>
                    <use xlink:href="#d2XW4waS2V" opacity="1" fill-opacity="0" stroke="#000000" stroke-width="1" stroke-opacity="0"/>
                </g>
            </g>
        </g>
    </g>
</svg>
